<svg width="23" height="23" viewBox="0 0 23 23" fill="none" xmlns="http://www.w3.org/2000/svg">
<path d="M9.07481 0.75C11.2271 0.75 13.2912 1.60602 14.813 3.12976C16.3349 4.65349 17.1899 6.72012 17.1899 8.875C17.1899 10.8875 16.4533 12.7375 15.2423 14.1625L15.5794 14.5H16.5657L22.808 20.75L20.9353 22.625L14.6929 16.375V15.3875L14.3559 15.05C12.9326 16.2625 11.0849 17 9.07481 17C6.92255 17 4.85845 16.144 3.33657 14.6202C1.8147 13.0965 0.959717 11.0299 0.959717 8.875C0.959717 6.72012 1.8147 4.65349 3.33657 3.12976C4.85845 1.60602 6.92255 0.75 9.07481 0.75M9.07481 3.25C5.95362 3.25 3.45667 5.75 3.45667 8.875C3.45667 12 5.95362 14.5 9.07481 14.5C12.196 14.5 14.6929 12 14.6929 8.875C14.6929 5.75 12.196 3.25 9.07481 3.25Z" fill="black" fill-opacity="0.6"/>
</svg>
