<svg width="24" height="24" viewBox="0 0 40 40" fill="none" xmlns="http://www.w3.org/2000/svg">
<path d="M38.125 8.75V18.75C38.125 19.2473 37.9275 19.7242 37.5759 20.0758C37.2242 20.4275 36.7473 20.625 36.25 20.625C35.7527 20.625 35.2758 20.4275 34.9242 20.0758C34.5726 19.7242 34.375 19.2473 34.375 18.75V13.2812L22.5782 25.0781C22.404 25.2529 22.197 25.3916 21.9691 25.4863C21.7412 25.5809 21.4968 25.6296 21.25 25.6296C21.0032 25.6296 20.7589 25.5809 20.531 25.4863C20.3031 25.3916 20.0961 25.2529 19.9219 25.0781L15 20.1562L5.07815 30.0781C4.72433 30.4274 4.24718 30.6232 3.75003 30.6232C3.25287 30.6232 2.77573 30.4274 2.4219 30.0781C2.2471 29.9039 2.10841 29.6969 2.01377 29.469C1.91914 29.2411 1.87042 28.9968 1.87042 28.75C1.87042 28.5032 1.91914 28.2589 2.01377 28.031C2.10841 27.8031 2.2471 27.5961 2.4219 27.4219L13.6719 16.1719C13.8461 15.9971 14.0531 15.8584 14.281 15.7637C14.5089 15.6691 14.7532 15.6204 15 15.6204C15.2468 15.6204 15.4912 15.6691 15.7191 15.7637C15.947 15.8584 16.154 15.9971 16.3282 16.1719L21.25 21.0938L31.7188 10.625H26.25C25.7527 10.625 25.2758 10.4275 24.9242 10.0758C24.5726 9.72419 24.375 9.24728 24.375 8.75C24.375 8.25272 24.5726 7.77581 24.9242 7.42417C25.2758 7.07254 25.7527 6.875 26.25 6.875H36.25C36.7473 6.875 37.2242 7.07254 37.5759 7.42417C37.9275 7.77581 38.125 8.25272 38.125 8.75V8.75Z" fill="#6C5DD3"/>
</svg>
