<svg width="24" height="24" viewBox="0 0 40 40" fill="none" xmlns="http://www.w3.org/2000/svg">
<path d="M40 24.3333C40 25.3333 38 26 35.6667 26.3333C34.1667 23.5 31.1667 21.3333 27.6667 19.8333C28 19.3333 28.3333 19 28.6667 18.5H30C35.1667 18.3333 40 21.5 40 24.3333V24.3333ZM11.3333 18.3333H10C4.83333 18.3333 0 21.5 0 24.3333C0 25.3333 2 26 4.33333 26.3333C5.83333 23.5 8.83333 21.3333 12.3333 19.8333L11.3333 18.3333V18.3333ZM20 20C23.6667 20 26.6667 17 26.6667 13.3333C26.6667 9.66666 23.6667 6.66666 20 6.66666C16.3333 6.66666 13.3333 9.66666 13.3333 13.3333C13.3333 17 16.3333 20 20 20ZM20 21.6667C13.1667 21.6667 6.66667 26 6.66667 30C6.66667 33.3333 20 33.3333 20 33.3333C20 33.3333 33.3333 33.3333 33.3333 30C33.3333 26 26.8333 21.6667 20 21.6667ZM29.5 16.6667H30C32.8333 16.6667 35 14.5 35 11.6667C35 8.83333 32.8333 6.66666 30 6.66666C29.1667 6.66666 28.5 6.83333 27.8333 7.16666C29.1667 8.83333 30 11 30 13.3333C30 14.5 29.8333 15.6667 29.5 16.6667ZM10 16.6667H10.5C10.1667 15.6667 10 14.5 10 13.3333C10 11 10.8333 8.83333 12.1667 7.16666C11.5 6.83333 10.8333 6.66666 10 6.66666C7.16667 6.66666 5 8.83333 5 11.6667C5 14.5 7.16667 16.6667 10 16.6667Z" fill="#6C5DD3"/>
</svg>
